<svg xmlns="http://www.w3.org/2000/svg" viewBox="0 0 522.19 212.9"><g id="graphics"><path d="M255.68,194.52a28.38,28.38,0,0,1,4.54-10.88,4,4,0,0,1,5.29-.83,3.46,3.46,0,0,1,.87,4.95c-1.89,2.71-4.36,10-3.21,16.44s3.11,11.63,13.79,13.55c6.78,1.22,7.45,6.43,7.94,10.23.54,4.17,1.21,9.37,7.67,15.06a44.08,44.08,0,0,0,9.25,5.69c1.71.88,3.49,1.8,5.26,2.85,2.66-5.65,4.86-15.33,4.67-21.1a33.82,33.82,0,0,0-7.15-19.74l-1-1.24.3-1.51a36.25,36.25,0,0,0,.72-8.09,15.82,15.82,0,0,1-4.8.72c-7.26-.07-12.85-2.87-16.63-7.39-6.52-7.78-5-16.45-4.71-21s.59-8.14,1.13-13.26c.85-7.93,1.9-17.81,1.11-21.32-2.45-10.8-8-10.63-10.12-10.56a3.56,3.56,0,1,1-.22-7.11c5.22-.16,14.47,1.71,17.75,16.16,1,4.6,0,14.21-1,23.51-.54,5.11-1,8.81-1.1,12.93s-.77,11.7,3.12,16.25c2.44,2.85,6.05,4.4,11.11,4.66,1.83.12,5.85-1.69,8-5.37a20.55,20.55,0,0,0-3-21.69l-1.86-2.24,1.93-2.2a20.58,20.58,0,0,0,.85-26.5l-1.71-2.18,1.8-2.13a21,21,0,0,0,5-14.19c-.4-12.61-9.11-21.15-21.16-20.77-8.33.27-14.57,3.72-18,11.77-8.43-2.23-18.29,5.09-20.49,12.37-2.28,7.54-.89,16.56,8.65,28a34.28,34.28,0,0,0,4.49,4.52,3.4,3.4,0,0,1,.3,5,4,4,0,0,1-5.35.31,43.47,43.47,0,0,1-5.41-5.44,46.78,46.78,0,0,1-10.11-23.58c-14.41,9.85-16.26,28-9.7,37.94C226.07,179.8,239.16,195.3,255.68,194.52Z" transform="translate(-216.05 -96.11)" fill="#445a64"/><path d="M298.16,255a39.5,39.5,0,0,1-10.79-6.74c-8.46-7.45-9.38-14.63-10-19.38-.5-3.87-.65-3.9-1.87-4.12-6.16-1.11-10.39-3.1-13.34-5.63a28.69,28.69,0,0,1-10.56,2.43A33.94,33.94,0,0,1,234,217a3.42,3.42,0,0,1-1-4.93,4,4,0,0,1,5.24-1c.42.26,9.54,5.75,19.55,2.15a25.91,25.91,0,0,1-2.76-11.5c-15.91.43-30.63-9-31.26-24.71-20.57,30.21,3.93,58.52,31.88,66.53,7.52,2.16,12.94,9.69,13,17.54a16.85,16.85,0,0,1-1,5.74,43.21,43.21,0,0,1,9.95,3.18,35.4,35.4,0,0,1-.13-10.19,3.78,3.78,0,0,1,4.3-3,3.58,3.58,0,0,1,3.19,4c0,.09-1.73,11.41,3.26,16.7a24.52,24.52,0,0,1,6.07,12.65,3.62,3.62,0,0,1-3.24,4l-.41,0a3.71,3.71,0,0,1-3.86-3.06c-2.24-15.17-17.8-17.28-23.3-17.83a28.28,28.28,0,0,1-11.5,6.73,3.8,3.8,0,0,1-1.14.2,3.75,3.75,0,0,1-3.69-2.36,3.51,3.51,0,0,1,2.32-4.54c7.53-2.52,11.66-6.85,11.61-12.21a11.93,11.93,0,0,0-7.84-10.86c-15.56-4.82-27-12.69-34.06-23.42-9.13,23.89,10.67,34,23.33,32.53a3.78,3.78,0,0,1,4.22,3.09,3.64,3.64,0,0,1-3.31,4c-1,.12-2,.19-3,.22A33.25,33.25,0,0,1,228.77,265c-3,13.19,10.52,35.19,35.18,26.15,3.09,17.29,28.59,25.29,43.29,8.86C321.7,283.86,311.67,260.66,298.16,255Z" transform="translate(-216.05 -96.11)" fill="#445a64"/><path d="M316.38,145.56a19.37,19.37,0,0,0,.28,2.64,54.32,54.32,0,0,1,8.34-8.9l2.5-2c8-6.32,12-9.49,11.28-20.12a3.66,3.66,0,0,1,7.3-.45c.93,14.08-5.28,19-13.87,25.82l-2.45,1.95a47.36,47.36,0,0,0-9.91,11.78l0,.08-.76,1.55a19.76,19.76,0,0,0,.34,18.3l.74,1.37-.6,1.44a27.82,27.82,0,0,0-2.2,11.79,28.29,28.29,0,0,0,2,9.47,32,32,0,0,1,10.41-8.53c6-3.17,13.05-4.65,18.19-4a40.24,40.24,0,0,1,28.87-13.6h.28c6.48-.21,19.21,1.63,24.85,9.24,2.46-13.74-2.45-25-16.77-28,2.78-11.3-4.37-21.84-11-25.45a30.47,30.47,0,0,1-11.81,15.62c1.71,2.33,5.8,8.54,5.89,15.18a3.57,3.57,0,0,1-3.56,3.49h-.06a3.55,3.55,0,0,1-3.71-3.38c-.06-4.67-3.23-9.5-4.53-11.27-5.92,3.92-11.42,8.12-14.92,18.73a3.64,3.64,0,0,1-3.38,2.43,3.8,3.8,0,0,1-1.2-.15,3.38,3.38,0,0,1-2.41-4.29c4.53-13.74,12.33-18.83,19.21-23.31,5.84-3.82,10.91-7.15,13.71-15.74l.57-2.86a22.42,22.42,0,0,0,.43-5.13c-.42-13.24-12.22-23.64-26.32-23.19S317,107.7,317.39,120.94a22.7,22.7,0,0,0,2.5,9.63l.87,1.69-1.05,1.6A20.13,20.13,0,0,0,316.38,145.56Z" transform="translate(-216.05 -96.11)" fill="#445a64"/><path d="M404.24,230.51a71.79,71.79,0,0,1-6.78,7.07,3.84,3.84,0,0,1-5.17-.08,3.29,3.29,0,0,1,.11-4.86,64.12,64.12,0,0,0,7.62-8.33l-.06-.06,1.31-2.05a26.91,26.91,0,0,0-4.72-34.85c-.25-.24-.49-.48-.75-.7l-.27-.24c-4.5-3.6-11.23-5.58-18.33-5.36a32.93,32.93,0,0,0-24.79,12.63l-1.65,2.07-2.57-.9c-2.3-.81-8.4-.44-14.76,2.91a23.42,23.42,0,0,0-11.92,14.74c-3.29,12.22,6.12,19.33,9.45,21.69,1.61,1.15,2.37,3,1.38,4.67a3.7,3.7,0,0,1-3.08,1.77,3.82,3.82,0,0,1-1.88-.42,27.57,27.57,0,0,1-9.53-8.76,24.34,24.34,0,0,0-1.25,8.34,24.77,24.77,0,0,0,5.71,15l1.05,1.29a83.16,83.16,0,0,0,10.72,9.31c1.6,1.23,3,2.33,4.11,3.26,10.22,8.73,8.22,19.39,5.74,23.81a3.7,3.7,0,0,1-3.13,1.84,4,4,0,0,1-1.83-.39,3.33,3.33,0,0,1-1.53-4.62c.46-.86,4.16-8.41-4.19-15.55-1-.87-2.34-1.88-3.82-3-2.55-2-5.6-4.33-8.42-6.92a17.66,17.66,0,0,0-.2,3,17.19,17.19,0,0,0,2,7.58l.85,1.63-.95,1.58a20.2,20.2,0,0,0-2.88,11c.37,11.65,10.77,20.81,23.18,20.42a22.56,22.56,0,0,0,19.87-12.59l.63-1.33,1.45-.5a19.66,19.66,0,0,0,9.82-7.47,21.18,21.18,0,0,1-8.74-2.93,18,18,0,0,1-8.72-13.5c-.53-5.09,1-10.79,2.75-15.22a34.15,34.15,0,0,1-9.29,1.65,21.26,21.26,0,0,1-7.95-1.06,3.34,3.34,0,0,1-2-4.47,3.75,3.75,0,0,1,4.77-1.9c4.09,1.55,17,.16,21.43-7.68,4.54-8.1,5.75-12.32,4.05-16.4a9.57,9.57,0,0,0-7.18-5.82,15.6,15.6,0,0,0-13.13,3.91,3.83,3.83,0,0,1-5.18-.12,3.29,3.29,0,0,1,.16-4.86,23.77,23.77,0,0,1,16.4-6,28.16,28.16,0,0,0,.17-12.63,3.45,3.45,0,0,1,2.69-4.16,3.69,3.69,0,0,1,4.42,2.51,34.59,34.59,0,0,1-.17,15.87,16.53,16.53,0,0,1,8.64,8.78c3.52,8.45-.7,16.18-7.88,28.08,0,0-6.23,11-5.41,18.83a11,11,0,0,0,5.43,8.43C390.24,290.07,414.17,257.32,404.24,230.51Z" transform="translate(-216.05 -96.11)" fill="#445a64"/><g id="path334768"><path d="M500.26,197.22H473.38L453.9,165.54h-2.28v31.68h-22v-88h34.91c9.32,0,27.73,3.84,27.73,28.16,0,16.39-8.37,23.47-16.68,26.34ZM470.08,137.4c0-8.05-5.28-10.42-10.58-10.42h-7.88v20.83h7.88C464.8,147.81,470.08,145.44,470.08,137.4Z" transform="translate(-216.05 -96.11)" fill="#445a64"/></g><g id="path334770"><path d="M579.26,109.24v52.6c0,13.32-3.24,37.82-37.34,37.82s-37.34-24.5-37.34-37.82v-52.6h22v48.9c0,19.77,7.68,21.49,15.35,21.49s15.34-1.72,15.34-21.49v-48.9Z" transform="translate(-216.05 -96.11)" fill="#445a64"/></g><g id="path334772"><path d="M651.26,169.84c0,20.36-16,29.82-33.14,29.82s-30.08-9.9-30.08-9.9l9.54-18.4c5.8,6.06,15.25,8.94,20.54,8.94s9.76-4.09,9.76-8.36c0-15.49-36.32-5.7-36.32-36.1,0-19.48,14-28.88,29.62-28.88a55.33,55.33,0,0,1,26.56,7.1l-8.85,17.82s-7.41-5.94-14.3-5.94c-5.15,0-9.76,1.91-9.76,7.57C614.83,146.67,651.26,138.2,651.26,169.84Z" transform="translate(-216.05 -96.11)" fill="#445a64"/></g><g id="path334774"><path d="M738.24,109.24v88h-22V160.7H683.63v36.52h-22v-88h22V143.6h32.62V109.24Z" transform="translate(-216.05 -96.11)" fill="#445a64"/></g><g id="path334776"><path d="M535.65,298.16H512.19l-4.82-5.23a48,48,0,0,1-21.78,5.18c-26.16,0-47.38-20.72-47.38-46.3s21.22-46.29,47.38-46.29S533,226.25,533,251.81a45.52,45.52,0,0,1-11.84,30.6Zm-25.37-46.34c0-13.33-11-24.13-24.69-24.13s-24.69,10.8-24.69,24.13,11.06,24.12,24.69,24.12a25.22,25.22,0,0,0,5.54-.63l-12-13H502.6l3.15,3.43A23.6,23.6,0,0,0,510.28,251.82Z" transform="translate(-216.05 -96.11)" fill="#445a64"/></g><g id="path334778"><path d="M617.55,207.67v52.6c0,13.32-3.24,37.82-37.33,37.82s-37.34-24.5-37.34-37.82v-52.6h22v48.9c0,19.77,7.68,21.49,15.35,21.49s15.34-1.72,15.34-21.49v-48.9Z" transform="translate(-216.05 -96.11)" fill="#445a64"/></g><g id="path334780"><path d="M630.53,295.65v-88h22v88Z" transform="translate(-216.05 -96.11)" fill="#445a64"/></g><g id="path334782"><path d="M697.42,276.16h36.46v19.55H675.1v-.06H660.25l40.32-68.26H667V207.84h45.1l.1-.17h25.66Z" transform="translate(-216.05 -96.11)" fill="#445a64"/></g></g></svg>