<svg xmlns="http://www.w3.org/2000/svg" viewBox="0 0 360.72 360.72"><g id="graphics"><circle cx="180.36" cy="180.36" r="180.36" fill="#445a64"/><path d="M273.63,220.53a36.13,36.13,0,0,1,5.79-13.87,5,5,0,0,1,6.74-1,4.41,4.41,0,0,1,1.11,6.31c-2.41,3.44-5.56,12.76-4.09,21s4,14.81,17.57,17.26c8.64,1.55,9.49,8.19,10.11,13,.69,5.32,1.54,11.94,9.77,19.2,3.24,2.86,7.39,5,11.79,7.25,2.18,1.12,4.46,2.29,6.71,3.62,3.39-7.2,6.18-19.53,5.95-26.89A43.1,43.1,0,0,0,336,241.2l-1.22-1.59.39-1.92a47.25,47.25,0,0,0,.91-10.31,19.57,19.57,0,0,1-6.11.91c-9.26-.09-16.37-3.65-21.19-9.4-8.31-9.92-6.4-21-6-26.74s.75-10.37,1.45-16.89c1.08-10.11,2.42-22.7,1.41-27.17-3.13-13.76-10.22-13.54-12.89-13.45a4.54,4.54,0,1,1-.29-9.06c6.65-.21,18.44,2.18,22.62,20.59,1.32,5.85,0,18.11-1.25,30-.69,6.51-1.28,11.22-1.4,16.47s-1,14.91,4,20.71c3.11,3.64,7.71,5.61,14.15,5.94,2.33.15,7.46-2.16,10.19-6.84a26.1,26.1,0,0,0,2.3-11.55,26.39,26.39,0,0,0-6.17-16.09l-2.36-2.85,2.45-2.81a26.63,26.63,0,0,0,6.7-18.36A26.29,26.29,0,0,0,338,145.33l-2.17-2.77,2.29-2.72a26.73,26.73,0,0,0,6.39-18.08c-.51-16.06-11.6-26.94-27-26.45-10.61.33-18.56,4.73-23,15-10.74-2.85-23.3,6.48-26.1,15.76-2.91,9.6-1.14,21.1,11,35.66a45.07,45.07,0,0,0,5.72,5.75,4.35,4.35,0,0,1,.39,6.4,5,5,0,0,1-6.82.39,54.39,54.39,0,0,1-6.89-6.93A59.59,59.59,0,0,1,259,137.28c-18.36,12.55-20.72,35.65-12.36,48.35C235.91,201.77,252.58,221.52,273.63,220.53Z" transform="translate(-164.15 -50.41)" fill="#fff"/><path d="M327.76,297.56A50.41,50.41,0,0,1,314,289c-10.77-9.5-11.95-18.65-12.73-24.7-.63-4.93-.83-5-2.38-5.25-7.84-1.41-13.24-3.94-17-7.17A36.27,36.27,0,0,1,268.44,255,43.2,43.2,0,0,1,246,249.16a4.36,4.36,0,0,1-1.32-6.28,5,5,0,0,1,6.68-1.27c.53.32,12.15,7.32,24.91,2.73-1.24-2.65-3.68-8.17-3.51-14.65-20.28.55-39-11.43-39.84-31.49-26.21,38.5,5,74.57,40.62,84.78,9.58,2.74,16.5,12.34,16.59,22.34a21.49,21.49,0,0,1-1.29,7.32,54.92,54.92,0,0,1,12.68,4.05,45.66,45.66,0,0,1-.17-13,4.83,4.83,0,0,1,5.48-3.83,4.55,4.55,0,0,1,4.07,5.12c0,.12-2.21,14.54,4.16,21.28a31.12,31.12,0,0,1,7.72,16.12,4.61,4.61,0,0,1-4.12,5.13l-.52,0a4.73,4.73,0,0,1-4.92-3.9c-2.85-19.33-22.68-22-29.69-22.71-3.17,3.22-7.81,6.29-14.65,8.57a5,5,0,0,1-1.46.26,4.81,4.81,0,0,1-4.7-3,4.49,4.49,0,0,1,3-5.79c9.6-3.21,14.85-8.73,14.79-15.55-.05-6-4.43-12.13-10-13.84-19.84-6.14-34.39-16.17-43.4-29.84-11.64,30.43,13.59,43.35,29.72,41.45a4.8,4.8,0,0,1,5.37,3.93,4.62,4.62,0,0,1-4.21,5.06c-1.31.15-2.59.25-3.84.29a42.43,42.43,0,0,1-14.74-2.13c-3.8,16.82,13.4,44.85,44.83,33.32,3.93,22,36.42,32.23,55.16,11.29C357.75,334.36,345,304.8,327.76,297.56Z" transform="translate(-164.15 -50.41)" fill="#fff"/><path d="M351,158.15a23.63,23.63,0,0,0,.35,3.36A69,69,0,0,1,362,150.17l3.19-2.54c10.16-8,15.25-12.09,14.37-25.63a4.67,4.67,0,0,1,9.3-.57c1.18,17.94-6.73,24.21-17.67,32.89-1,.8-2,1.62-3.12,2.49a59.74,59.74,0,0,0-12.63,15l.06.11-1,2a25.22,25.22,0,0,0,.44,23.32l.94,1.75-.77,1.83a35.07,35.07,0,0,0-.2,27.09A40.76,40.76,0,0,1,368.17,217c7.68-4,16.62-5.93,23.18-5.08a51.27,51.27,0,0,1,36.77-17.34h.36c8.26-.26,24.48,2.09,31.67,11.78,3.13-17.51-3.13-31.89-21.37-35.62,3.55-14.41-5.57-27.83-14-32.43-3.47,10-9.06,15.55-15.05,19.91,2.18,3,7.39,10.87,7.5,19.33a4.54,4.54,0,0,1-4.53,4.45h-.08a4.51,4.51,0,0,1-4.72-4.31c-.08-5.95-4.13-12.1-5.77-14.35-7.56,5-14.56,10.34-19,23.86a4.66,4.66,0,0,1-4.32,3.1,5,5,0,0,1-1.52-.19,4.32,4.32,0,0,1-3.07-5.47c5.77-17.51,15.7-24,24.47-29.71,7.44-4.86,13.9-9.1,17.48-20.05l.72-3.64a29.24,29.24,0,0,0,.55-6.55c-.54-16.86-15.58-30.11-33.54-29.54s-32.12,14.75-31.59,31.61A28.83,28.83,0,0,0,355.45,139l1.1,2.15-1.33,2.05A25.61,25.61,0,0,0,351,158.15Z" transform="translate(-164.15 -50.41)" fill="#fff"/><path d="M462.93,266.38a92.69,92.69,0,0,1-8.64,9,4.88,4.88,0,0,1-6.59-.1,4.19,4.19,0,0,1,.14-6.19,81.48,81.48,0,0,0,9.7-10.61l-.07-.09,1.67-2.6a34.28,34.28,0,0,0-6-44.41c-.32-.31-.62-.61-1-.89l-.35-.31c-5.72-4.58-14.31-7.1-23.35-6.83a42,42,0,0,0-31.59,16.1l-2.1,2.63-3.28-1.15c-2.92-1-10.69-.55-18.8,3.72a29.78,29.78,0,0,0-15.19,18.77c-4.19,15.57,7.8,24.64,12,27.65,2.06,1.46,3,3.84,1.77,5.95a4.86,4.86,0,0,1-6.33,1.71,35.18,35.18,0,0,1-12.14-11.15,31.05,31.05,0,0,0-1.6,10.62,31.6,31.6,0,0,0,7.28,19.11l1.34,1.64c3.89,4.34,9.39,8.59,13.66,11.87,2,1.56,3.85,3,5.24,4.15,13,11.13,10.47,24.71,7.31,30.34a4.75,4.75,0,0,1-4,2.35,4.94,4.94,0,0,1-2.33-.51,4.24,4.24,0,0,1-1.95-5.88c.59-1.09,5.3-10.71-5.34-19.81-1.29-1.11-3-2.4-4.86-3.85-3.25-2.5-7.14-5.51-10.74-8.82a21.36,21.36,0,0,0,2.33,13.49l1.09,2.06-1.21,2a25.76,25.76,0,0,0-3.67,14c.47,14.86,13.72,26.52,29.53,26a28.72,28.72,0,0,0,25.32-16l.8-1.7,1.86-.64a25,25,0,0,0,12.51-9.52,27,27,0,0,1-11.15-3.73,22.92,22.92,0,0,1-11.1-17.2c-.67-6.49,1.33-13.75,3.51-19.4a43,43,0,0,1-11.84,2.11,27.25,27.25,0,0,1-10.13-1.35,4.27,4.27,0,0,1-2.56-5.7,4.81,4.81,0,0,1,6.09-2.42c5.2,2,21.66.2,27.31-9.78,5.78-10.33,7.32-15.7,5.15-20.89a12.2,12.2,0,0,0-9.15-7.43c-5.55-1.14-12,.76-16.73,5a4.89,4.89,0,0,1-6.6-.15,4.21,4.21,0,0,1,.2-6.2,30.32,30.32,0,0,1,20.9-7.66,35.55,35.55,0,0,0,.21-16.09,4.39,4.39,0,0,1,3.44-5.3,4.7,4.7,0,0,1,5.63,3.2,44.17,44.17,0,0,1-.21,20.22,21.08,21.08,0,0,1,11,11.19c4.49,10.77-.89,20.61-10,35.77,0,.06-7.94,14-6.9,24a14,14,0,0,0,6.93,10.74C445.09,342.27,475.58,300.54,462.93,266.38Z" transform="translate(-164.15 -50.41)" fill="#fff"/></g></svg>